<svg xmlns="http://www.w3.org/2000/svg" viewBox="0 0 260 170"><defs><linearGradient id="cloud" x2="0" y2="1"><stop stop-color="#dce7ef"/><stop offset=".55" stop-color="#9bacbd"/><stop offset="1" stop-color="#6e819a"/></linearGradient></defs><ellipse cx="131" cy="153" rx="84" ry="9" fill="#304657" opacity=".14"/><path d="M42 132C9 132 4 86 37 76 30 50 54 29 79 37 93 4 143 5 160 38 187 20 219 43 216 67 255 64 267 113 235 129 201 145 170 131 137 137 102 142 72 132 42 132Z" fill="url(#cloud)" stroke="#e4ebf0" stroke-width="4"/><path d="M39 79q16-10 30-3M86 39q18-14 36-8m45 14q16-5 25 6M48 113q20 9 41 4m63-1q25 9 47-2" fill="none" stroke="#edf3f6" stroke-width="5" stroke-linecap="round" opacity=".55"/><path d="M21 145h38m143-3h32M82 154h38" stroke="#d5e0e6" stroke-width="4" stroke-linecap="round" opacity=".6"/></svg>
