<svg xmlns="http://www.w3.org/2000/svg" width="1600" height="1000" viewBox="0 0 1600 1000" role="img" aria-label="Armor of God Quest scene 1"><defs><linearGradient id="bg" x1="0" y1="0" x2="1" y2="1"><stop offset="0" stop-color="#081428"/><stop offset="1" stop-color="#4338ca"/></linearGradient><radialGradient id="r" cx="50%" cy="38%" r="48%"><stop offset="0" stop-color="#fff7ad" stop-opacity=".96"/><stop offset=".48" stop-color="#93c5fd" stop-opacity=".34"/><stop offset="1" stop-color="#93c5fd" stop-opacity="0"/></radialGradient><filter id="g"><feGaussianBlur stdDeviation="12" result="b"/><feMerge><feMergeNode in="b"/><feMergeNode in="SourceGraphic"/></feMerge></filter></defs><rect width="1600" height="1000" fill="url(#bg)"/><circle cx="800" cy="420" r="430" fill="url(#r)"/><path d="M0 790 C260 700 430 830 650 745 C890 650 1040 770 1600 640 L1600 1000 L0 1000 Z" fill="#0f2f3d" opacity=".62"/><path d="M0 880 C330 780 470 900 720 810 C980 718 1130 858 1600 745 L1600 1000 L0 1000 Z" fill="#184e38" opacity=".5"/><g filter="url(#g)"><path d="M630 555 C710 500 890 500 970 555 L970 700 C880 635 720 635 630 700 Z" fill="#fff8dc" stroke="#f6c453" stroke-width="18"/><path d="M800 525 L800 675" stroke="#f6c453" stroke-width="10"/><path d="M800 210 L990 290 L955 520 Q915 665 800 735 Q685 665 645 520 L610 290 Z" fill="#dbeafe" stroke="#fbbf24" stroke-width="22"/><path d="M800 245 L800 690" stroke="#4338ca" stroke-width="18" opacity=".55"/></g><g opacity=".98"><circle cx="485" cy="662" r="54" fill="#22c55e"/><circle cx="478" cy="625" r="25" fill="#f7c7a3"/><path d="M445 710 Q485 740 525 710" fill="#16a34a"/><circle cx="640" cy="672" r="50" fill="#2563eb"/><circle cx="634" cy="637" r="24" fill="#f1b890"/><path d="M604 718 Q640 746 676 718" fill="#1d4ed8"/><circle cx="960" cy="672" r="50" fill="#7c3aed"/><circle cx="954" cy="637" r="24" fill="#d9a06f"/><path d="M924 718 Q960 746 996 718" fill="#6d28d9"/><circle cx="1115" cy="662" r="54" fill="#facc15"/><circle cx="1108" cy="625" r="25" fill="#9b6a4a"/><path d="M1075 710 Q1115 740 1155 710" fill="#eab308"/></g><g fill="#fff7ad" opacity=".9"><circle cx="330" cy="240" r="10"/><circle cx="1220" cy="200" r="8"/><circle cx="1320" cy="530" r="12"/><circle cx="250" cy="610" r="7"/><circle cx="1050" cy="340" r="9"/></g></svg>